<svg xmlns="http://www.w3.org/2000/svg" version="1.1" xmlns:xlink="http://www.w3.org/1999/xlink" xmlns:svgjs="http://svgjs.dev/svgjs" width="1500" height="1500" viewBox="0 0 1500 1500"><rect width="1500" height="1500" fill="#000000"></rect><g transform="matrix(0.6666666666666666,0,0,0.6666666666666666,249.39570638264468,433.6098374874909)"><svg viewBox="0 0 396 250" data-background-color="#191552" preserveAspectRatio="xMidYMid meet" height="946" width="1500" xmlns="http://www.w3.org/2000/svg" xmlns:xlink="http://www.w3.org/1999/xlink"><g id="tight-bounds" transform="matrix(1,0,0,1,0.2400000000000091,0.4189333426965618)"><svg viewBox="0 0 395.52 249.16213331460688" height="249.16213331460688" width="395.52"><g><svg viewBox="0 0 395.52 249.16213331460688" height="249.16213331460688" width="395.52"><g transform="matrix(1,0,0,1,0,128.31812989184374)"><svg viewBox="0 0 395.52 120.84400342276315" height="120.84400342276315" width="395.52"><g id="textblocktransform"><svg viewBox="0 0 395.52 120.84400342276315" height="120.84400342276315" width="395.52" id="textblock"><g><svg viewBox="0 0 395.52 120.84400342276315" height="120.84400342276315" width="395.52"><g transform="matrix(1,0,0,1,0,0)"><svg width="395.52" viewBox="0.07826999999999984 -19.38917 152.61711999999997 46.62942534512905" height="120.84400342276315" data-palette-color="#6ee2f5"><path d="M4.213 14.559l-4.135-1.32 10.414-32.628 13.966 4.457c1.442 0.46 2.663 1.182 3.665 2.167 1.003 0.978 1.792 2.104 2.364 3.379 0.571 1.281 0.903 2.619 0.997 4.013 0.092 1.401-0.067 2.743-0.476 4.026v0c-0.48 1.505-1.218 2.841-2.213 4.007-0.995 1.166-2.159 2.061-3.492 2.685-1.325 0.62-2.735 0.894-4.231 0.823v0l3.909 15.019-4.687-1.496-3.701-14.092-8.64-2.758zM13.453-14.392l-4.327 13.556 9.879 3.153c1.137 0.363 2.225 0.364 3.264 0.002 1.045-0.359 1.972-0.984 2.781-1.873 0.802-0.892 1.394-1.934 1.775-3.128v0c0.391-1.226 0.477-2.437 0.258-3.634-0.224-1.205-0.684-2.255-1.379-3.148-0.693-0.9-1.575-1.521-2.648-1.863v0zM28.917 21.755l18.9-31.827 3.62 0.535 8.829 35.928-4.581-0.677-2.539-10.515-14.215-2.102-5.434 9.335zM40.276 9.879l12.405 1.835-3.789-16.553zM62.893 24.94l1.19-3.493c0.597 0.427 1.431 0.84 2.502 1.237 1.071 0.391 2.343 0.604 3.817 0.638v0c1.513 0.035 2.758-0.184 3.736-0.655 0.978-0.478 1.735-1.217 2.271-2.218 0.536-1.001 0.919-2.286 1.149-3.855 0.229-1.575 0.369-3.439 0.418-5.592v0l0.421-18.375 4.338 0.099-0.398 17.416c-0.058 2.539-0.241 4.866-0.55 6.979-0.302 2.114-0.857 3.941-1.666 5.483-0.809 1.542-1.986 2.715-3.532 3.52-1.545 0.798-3.588 1.168-6.127 1.11v0c-1.606-0.037-3.015-0.246-4.227-0.627-1.218-0.381-2.332-0.937-3.342-1.667zM87.018 26.718l10.095-35.612 3.637-0.412 17.757 32.457-4.601 0.521-5.153-9.51-14.279 1.618-2.855 10.417zM94.948 12.324l12.461-1.412-7.912-15.024zM148.868 15.209l-26.69-20.053 6.744 25.358-4.194 1.116-8.803-33.1 3.546-0.943 27.108 20.491-6.868-25.822 4.194-1.115 8.79 33.051z" opacity="1" transform="matrix(1,0,0,1,0,0)" fill="#ffffff" class="wordmark-text-0" data-fill-palette-color="primary" id="text-0"></path></svg></g></svg></g></svg></g></svg></g><g transform="matrix(1,0,0,1,162.70397224037185,0)"><svg viewBox="0 0 70.1120555192563 120.84400342276315" height="120.84400342276315" width="70.1120555192563"><g><svg xmlns="http://www.w3.org/2000/svg" xmlns:xlink="http://www.w3.org/1999/xlink" version="1.1" x="0" y="0" viewBox="21.679106830508616 1 56.85827385947762 98" enable-background="new 0 0 100 100" xml:space="preserve" height="120.84400342276315" width="70.1120555192563" class="icon-icon-0" data-fill-palette-color="accent" id="icon-0"></svg></g></svg></g><g></g></svg></g><defs></defs><mask id="4e2fd3b0-508e-4656-8e3b-260cc87b58a0"><g id="SvgjsG1892"><svg viewBox="0 0 395.52 249.16213331460688" height="249.16213331460688" width="395.52"><g><svg viewBox="0 0 395.52 249.16213331460688" height="249.16213331460688" width="395.52"><g transform="matrix(1,0,0,1,0,128.31812989184374)"><svg viewBox="0 0 395.52 120.84400342276315" height="120.84400342276315" width="395.52"><g id="SvgjsG1891"><svg viewBox="0 0 395.52 120.84400342276315" height="120.84400342276315" width="395.52" id="SvgjsSvg1890"><g><svg viewBox="0 0 395.52 120.84400342276315" height="120.84400342276315" width="395.52"><g transform="matrix(1,0,0,1,0,0)"><svg width="395.52" viewBox="0.07826999999999984 -19.38917 152.61711999999997 46.62942534512905" height="120.84400342276315" data-palette-color="#6ee2f5"><path d="M4.213 14.559l-4.135-1.32 10.414-32.628 13.966 4.457c1.442 0.46 2.663 1.182 3.665 2.167 1.003 0.978 1.792 2.104 2.364 3.379 0.571 1.281 0.903 2.619 0.997 4.013 0.092 1.401-0.067 2.743-0.476 4.026v0c-0.48 1.505-1.218 2.841-2.213 4.007-0.995 1.166-2.159 2.061-3.492 2.685-1.325 0.62-2.735 0.894-4.231 0.823v0l3.909 15.019-4.687-1.496-3.701-14.092-8.64-2.758zM13.453-14.392l-4.327 13.556 9.879 3.153c1.137 0.363 2.225 0.364 3.264 0.002 1.045-0.359 1.972-0.984 2.781-1.873 0.802-0.892 1.394-1.934 1.775-3.128v0c0.391-1.226 0.477-2.437 0.258-3.634-0.224-1.205-0.684-2.255-1.379-3.148-0.693-0.9-1.575-1.521-2.648-1.863v0zM28.917 21.755l18.9-31.827 3.62 0.535 8.829 35.928-4.581-0.677-2.539-10.515-14.215-2.102-5.434 9.335zM40.276 9.879l12.405 1.835-3.789-16.553zM62.893 24.94l1.19-3.493c0.597 0.427 1.431 0.84 2.502 1.237 1.071 0.391 2.343 0.604 3.817 0.638v0c1.513 0.035 2.758-0.184 3.736-0.655 0.978-0.478 1.735-1.217 2.271-2.218 0.536-1.001 0.919-2.286 1.149-3.855 0.229-1.575 0.369-3.439 0.418-5.592v0l0.421-18.375 4.338 0.099-0.398 17.416c-0.058 2.539-0.241 4.866-0.55 6.979-0.302 2.114-0.857 3.941-1.666 5.483-0.809 1.542-1.986 2.715-3.532 3.52-1.545 0.798-3.588 1.168-6.127 1.11v0c-1.606-0.037-3.015-0.246-4.227-0.627-1.218-0.381-2.332-0.937-3.342-1.667zM87.018 26.718l10.095-35.612 3.637-0.412 17.757 32.457-4.601 0.521-5.153-9.51-14.279 1.618-2.855 10.417zM94.948 12.324l12.461-1.412-7.912-15.024zM148.868 15.209l-26.69-20.053 6.744 25.358-4.194 1.116-8.803-33.1 3.546-0.943 27.108 20.491-6.868-25.822 4.194-1.115 8.79 33.051z" opacity="1" transform="matrix(1,0,0,1,0,0)" fill="black" class="wordmark-text-0" id="SvgjsPath1889"></path></svg></g></svg></g></svg></g></svg></g><g transform="matrix(1,0,0,1,162.70397224037185,0)"><svg viewBox="0 0 70.1120555192563 120.84400342276315" height="120.84400342276315" width="70.1120555192563"><g><svg xmlns="http://www.w3.org/2000/svg" xmlns:xlink="http://www.w3.org/1999/xlink" version="1.1" x="0" y="0" viewBox="21.679106830508616 1 56.85827385947762 98" enable-background="new 0 0 100 100" xml:space="preserve" height="120.84400342276315" width="70.1120555192563" class="icon-icon-0" data-fill-palette-color="accent" id="SvgjsSvg1888"><g fill="white"><path fill-rule="evenodd" clip-rule="evenodd" d="M30.545 28.822C29.38 36.039 30.875 43.672 37.045 47.863 30.758 19.81 45.756 8.664 59.646 1 43.466 24.046 76.542 24.644 78.423 51.13 80.028 73.71 64.507 91.317 46.639 99 46.845 76.175 24.089 73.067 21.801 54.397 20.905 47.094 25.062 33.766 30.545 28.822" fill="white"></path></g></svg></g></svg></g><g></g></svg></g><defs><mask></mask></defs></svg><rect width="395.52" height="249.16213331460688" fill="black" stroke="none" visibility="hidden"></rect></g></mask><linearGradient x1="0" x2="1" y1="0.578" y2="0.595" id="e114e7c7-8d6a-4cb6-aa12-dbf336700a03"><stop stop-color="#6ee2f5" offset="0"></stop><stop stop-color="#6454f0" offset="1"></stop></linearGradient><rect width="395.52069972752724" height="249.16213331460688" fill="#ffffff" mask="url(#4e2fd3b0-508e-4656-8e3b-260cc87b58a0)" data-fill-palette-color="accent"></rect></svg><rect width="395.52" height="249.16213331460688" fill="none" stroke="none" visibility="hidden"></rect></g></svg></g></svg>